<svg
			id="Layer_1"
			xmlns="http://www.w3.org/2000/svg"
			xmlnsXlink="http://www.w3.org/1999/xlink"
			viewBox="0 0 53 53"
			width="53"
			height="53"
		>
			<defs>
				<circle id="rooms-SVGID_1_" cx="26.5" cy="26.5" r="25.5"></circle>
			</defs>
			<clipPath id="rooms-SVGID_2_">
				<use xlinkHref="#rooms-SVGID_1_" overflow="visible"></use>
			</clipPath>
			<g clipPath="url(#rooms-SVGID_2_)">
				<path
					fill="#396CD3"
					d="M26.5-1.1C11.9-1.1-1.1 5.6-1.1 27.6h55.2c-.1-19-13-28.7-27.6-28.7z"
				></path>
				<path
					fill="#4079EC"
					d="M53 26.5H-1.1c0 14.6 13 27.6 27.6 27.6s27.6-13 27.6-27.6H53z"
				></path>
				<path fill="#396CD3" d="M17 24.5h15v9H17z"></path>
			</g>
			<g fill="#F5F5F5">
				<path
					id="svg-rooms"
					fillRule="evenodd"
					clipRule="evenodd"
					d="M28.5 18a3.5 3.5 0 0 1 3.5 3.5v10a3.5 3.5 0 0 1-3.5 3.5h-10a3.5 3.5 0 0 1-3.5-3.5v-10a3.5 3.5 0 0 1 3.5-3.5h10zm-7.925 6.782a.804.804 0 0 0-1.045-.073l-.708.698-.297.33-.134.177a4.075 4.075 0 0 0 .433 5.265 4.07 4.07 0 0 0 2.886 1.198c.976 0 1.952-.349 2.73-1.05l.784-.777.077-.091.063-.102.045-.105a.797.797 0 0 0-.189-.824.806.806 0 0 0-1.045-.073l-.704.694-.123.116-.147.119-.15.105a2.5 2.5 0 0 1-3.099-.337 2.492 2.492 0 0 1-.12-3.392l.748-.756.076-.091.063-.102.046-.105a.794.794 0 0 0-.19-.824zm5.281-.637a.803.803 0 0 0-1.044-.073l-3.67 3.662-.078.091-.063.102-.045.105a.793.793 0 0 0 .754 1.056.805.805 0 0 0 .481-.16l3.671-3.662.076-.09.064-.102.045-.105a.795.795 0 0 0-.191-.824zm2.323-2.323a4.078 4.078 0 0 0-5.615-.149l-.785.777-.073.084-.062.098a.806.806 0 0 0 .14.941.803.803 0 0 0 1.043.072l.705-.693.127-.119.137-.111a2.494 2.494 0 0 1 3.257.227c.921.923.972 2.413.117 3.392l-.746.755-.072.084-.062.098a.8.8 0 0 0 .139.941.8.8 0 0 0 1.043.072l.709-.697.148-.156.145-.17a4.084 4.084 0 0 0-.295-5.446zm9.815-.188l.006.129v9.474c0 1.31-1.714 1.998-2.744 1.12l-.878-.847a2.828 2.828 0 0 1-.871-1.849l-.007-.19v-5.943c0-.765.316-1.498.879-2.039l.877-.846c.996-.848 2.631-.234 2.738.991z"
				></path>
			</g>
		</svg>