<svg width="24" height="24" viewBox="0 0 24 24" class=""><path fill="currentColor" d="M10.852 12.648h2.296L12 9zM20 8.691V6c0-1.102-.898-2-2-2h-2.691L13.41 2.102a2 2 0 0 0-2.828 0L8.692 4H6c-1.102 0-2 .898-2 2v2.691L2.102 10.59a2.004 2.004 0 0 0 0 2.832L4 15.32V18c0 1.102.898 2 2 2h2.691l1.899 1.898c.781.782 2.05.782 2.832 0L15.32 20H18c1.102 0 2-.898 2-2v-2.691l1.898-1.899a2.004 2.004 0 0 0 0-2.832zm-5.91 6.707L13.602 14h-3.204l-.488 1.398a.89.89 0 0 1-.84.602.888.888 0 0 1-.84-1.191l2.442-6.86C10.872 7.38 11.398 7 12 7c.602 0 1.129.379 1.34.941l2.441 6.86a.89.89 0 0 1-.84 1.187.868.868 0 0 1-.851-.59zm0 0"></path></svg>